<svg xmlns="http://www.w3.org/2000/svg" xml:space="preserve" width="2000" height="1500" data-id="lg_FfdQg6Z7FXX0rH5ftc" data-version="1" viewBox="0 0 2000 1500"><path fill="#1b1b1b" stroke="transparent" d="M0 0h2000v1500H0z"/><g data-padding="20"><g transform="translate(-1036.106 -718.001)scale(1.78427)"><rect width="134.395" height="545.79" x="998.238" y="257.018" fill="none" rx="0" ry="0" transform="translate(83.82 293.56)"/><path fill="#b9b9b9" d="M1117.125 976.623q-14.49 0-24.64-1.93v-48.3q7.73 1.93 17.39 1.93 15.94 0 23.67-7.97t7.73-24.39v-259.37h53.13v257.92q0 41.54-19.08 61.83-19.08 20.28-58.2 20.28"/><rect width="134.395" height="545.79" x="998.238" y="257.018" fill="none" rx="0" ry="0" transform="translate(67.6 292.11)"/><path fill="#3f3f3f" d="M1100.905 975.173q-14.49 0-24.63-1.93v-48.3q7.73 1.93 17.39 1.93 15.93 0 23.66-7.97 7.73-7.96 7.73-24.39v-259.37h53.13v257.92q0 41.54-19.08 61.83-19.08 20.28-58.2 20.28"/></g><path fill="transparent" stroke="transparent" stroke-width="2.057" d="M844.721 187.5h310.558v1125H844.72z"/></g></svg>